<svg xmlns="http://www.w3.org/2000/svg" viewBox="0 0 720 480" role="img" aria-labelledby="minip2p-logo-title" shape-rendering="crispEdges">
  <title id="minip2p-logo-title">minip2p</title>
  <path fill="#b96c45" fill-rule="evenodd" d="M160 130H150V120H140V110H130V100H120V90H110V80H40V0H120V80H130V90H140V100H150V110H160V120H240V200H170V210H160V220H150V230H140V240H130V250H120V260H140V300H160V320H240V300H300V260H340V220H360V200H400V160H460V120H500V80H520V40H660V80H720V160H700V200H540V220H600V260H540V300H620V340H580V380H540V340H500V280H460V360H420V400H460V440H420V480H380V440H340V400H160V360H120V340H100V280H80V270H70V260H60V250H0V170H80V260H90V270H100V250H110V240H120V230H130V220H140V210H150V200H160V130ZM180 180H220V140H180V180ZM660 340V380H620V340H660ZM580 80V120H620V80H580ZM100 60V20H60V60H100ZM500 480H460V440H500V480ZM20 190V230H60V190H20ZM300 440H340V480H300V440Z"/>
</svg>
